# xmcd
#
# Track frame offsets:
# 150
# 15478
# 28965
# 41054
# 57604
# 69470
# 85359
# 100982
# 114874
# 129167
# 147452
# 162470
# 178796
# 194431
# 207170
# 223643
# 237870
# 249768
# 262226
# 278986
#
# Disc length: 3894 seconds
#
#
# Revision: 0
# Processed by: cddbd v1.5.2PL0 Copyright (c) Steve Scherf et al.
# Submitted via: FreeRIP 2.945 
#
DISCID=2e0f3414
DTITLE=Ataíde and Alexandre - Sucessos Vol. I
DYEAR=2000
DGENRE=Sertanejo
TTITLE0=Eu Me Enganei
TTITLE1=Acordo Pra Sonhar
TTITLE2=A Bebida Não Cura
TTITLE3=Quando O Amor é Pra Valer
TTITLE4=Choradeira
TTITLE5=Amor de Arrepiar
TTITLE6=Pelo Interfone
TTITLE7=Uai Sô
TTITLE8=Apaixonado Por Voce
TTITLE9=Sua Ausência
TTITLE10=Meu Coração Fa, Tum, Tum, Tum
TTITLE11=Ontem a Noite Perguntei Por Voce
TTITLE12=Agenda Rabiscada
TTITLE13=Apaziguar
TTITLE14=Página de Amigos
TTITLE15=Dança do Chapeu
TTITLE16=Só Outra Paixão
TTITLE17=Amor Carrapicho
TTITLE18=Eu Vim de Lá
TTITLE19=Clareou, Clareou
EXTD=
EXTT0=
EXTT1=
EXTT2=
EXTT3=
EXTT4=
EXTT5=
EXTT6=
EXTT7=
EXTT8=
EXTT9=
EXTT10=
EXTT11=
EXTT12=
EXTT13=
EXTT14=
EXTT15=
EXTT16=
EXTT17=
EXTT18=
EXTT19=
PLAYORDER=
